<?xml version="1.0" encoding="UTF-8" ?>
<!DOCTYPE svg PUBLIC "-//W3C//DTD SVG 1.1//EN" "http://www.w3.org/Graphics/SVG/1.1/DTD/svg11.dtd">
<svg width="131pt" height="131pt" viewBox="0 0 131 131" version="1.1" xmlns="http://www.w3.org/2000/svg">
<g id="#2a63ffff">
</g>
<g id="#ffffffff">
<path fill="#ffffff" opacity="1.00" d=" M 53.98 16.89 C 63.50 10.74 77.41 14.34 83.19 23.95 C 86.39 28.59 86.89 34.35 86.82 39.82 C 91.76 40.50 97.05 41.64 100.65 45.38 C 104.76 49.30 105.39 55.45 104.85 60.81 C 103.84 69.58 102.65 78.33 101.61 87.09 C 101.09 91.36 100.15 95.91 97.05 99.10 C 92.75 103.76 86.05 104.91 80.01 105.11 C 70.36 105.15 60.71 105.09 51.05 105.14 C 45.26 105.08 39.06 104.38 34.27 100.82 C 30.20 97.91 28.45 92.81 27.95 88.01 C 26.85 78.99 25.66 69.97 24.60 60.94 C 23.99 55.60 24.73 49.64 28.58 45.58 C 32.23 41.70 37.66 40.50 42.74 39.78 C 41.95 30.84 46.21 21.55 53.98 16.89 M 59.02 20.09 C 51.48 23.22 47.10 31.62 47.84 39.62 C 59.07 39.62 70.30 39.64 81.53 39.61 C 81.63 35.78 81.60 31.78 79.72 28.32 C 76.23 20.85 66.71 16.95 59.02 20.09 M 39.43 45.59 C 36.41 46.38 33.09 47.57 31.39 50.39 C 29.17 53.82 29.48 58.12 29.91 62.00 C 31.01 70.64 32.07 79.29 33.16 87.94 C 33.62 91.14 34.54 94.68 37.31 96.68 C 41.57 99.67 46.99 99.95 52.01 100.01 C 61.01 99.98 70.00 100.03 78.99 99.99 C 83.40 99.81 88.17 99.48 91.90 96.85 C 94.82 94.84 95.87 91.17 96.31 87.82 C 97.39 78.78 98.58 69.74 99.67 60.70 C 100.10 56.53 99.93 51.58 96.56 48.58 C 92.83 45.47 87.71 45.03 83.05 44.88 C 71.35 44.86 59.66 44.90 47.96 44.86 C 45.11 44.88 42.23 44.95 39.43 45.59 Z" />
<path fill="#ffffff" opacity="1.00" d=" M 47.38 56.29 C 49.91 54.27 54.27 56.86 53.47 60.08 C 53.31 62.79 49.54 64.47 47.44 62.68 C 45.06 61.36 45.30 57.77 47.38 56.29 Z" />
<path fill="#ffffff" opacity="1.00" d=" M 77.44 56.45 C 79.68 54.43 83.54 56.27 83.70 59.17 C 83.97 61.68 81.48 64.03 78.97 63.26 C 75.85 62.78 74.73 58.21 77.44 56.45 Z" />
</g>
</svg>
