<?xml version="1.0" encoding="UTF-8" ?>
<!DOCTYPE svg PUBLIC "-//W3C//DTD SVG 1.1//EN" "http://www.w3.org/Graphics/SVG/1.1/DTD/svg11.dtd">
<svg width="274pt" height="251pt" viewBox="0 0 274 251" version="1.1" xmlns="http://www.w3.org/2000/svg">
<g id="#fcfcfcff">
</g>
<g id="#7a7a7aff">
<path fill="#7a7a7a" opacity="1.00" d=" M 72.50 69.55 C 78.43 60.47 89.05 54.64 99.93 54.75 C 120.29 54.73 140.65 54.76 161.00 54.73 C 163.71 54.42 166.73 56.13 167.00 59.02 C 167.37 64.46 167.00 69.92 167.13 75.36 C 175.27 74.76 184.87 75.65 189.84 83.08 C 197.70 96.02 204.89 109.37 212.54 122.44 C 213.85 124.78 215.54 127.15 215.39 129.96 C 215.35 141.30 215.42 152.63 215.36 163.97 C 215.30 171.33 211.80 178.51 206.13 183.18 C 200.95 187.65 194.00 189.48 187.25 189.20 C 184.64 197.72 175.91 204.05 166.90 202.86 C 159.19 202.22 152.73 196.40 150.48 189.12 C 144.38 189.12 138.28 189.12 132.17 189.13 C 129.58 197.26 121.62 203.53 112.92 202.95 C 104.85 202.83 97.68 196.85 95.39 189.23 C 88.42 189.51 81.32 187.49 76.04 182.82 C 70.38 177.96 67.03 170.47 67.19 163.02 C 67.31 159.33 71.98 156.68 75.08 158.93 C 78.19 160.77 77.21 164.81 78.17 167.76 C 80.18 175.08 87.91 179.63 95.30 178.92 C 97.80 170.52 106.26 164.24 115.11 165.09 C 123.02 165.48 129.79 171.44 132.12 178.86 C 138.26 178.88 144.40 178.90 150.54 178.85 C 152.73 171.17 159.93 165.28 167.97 165.06 C 176.74 164.43 184.86 170.75 187.41 178.99 C 195.42 179.65 203.61 174.13 204.81 165.97 C 205.28 159.91 204.87 153.82 204.99 147.75 C 199.63 147.69 194.26 147.84 188.90 147.72 C 182.84 147.61 177.46 142.10 177.52 136.02 C 177.50 128.69 177.40 121.35 177.57 114.02 C 177.80 107.73 183.51 103.28 189.45 102.71 C 186.54 98.17 184.30 93.21 181.21 88.79 C 177.83 84.53 171.85 85.93 167.14 85.78 C 167.09 100.19 167.17 114.61 167.10 129.02 C 167.16 135.73 163.30 142.24 157.40 145.42 C 152.20 148.48 145.90 147.89 140.13 147.58 C 135.43 146.88 134.77 139.74 139.04 137.89 C 142.48 137.07 146.06 137.82 149.55 137.34 C 153.45 136.72 156.82 133.14 156.73 129.11 C 156.76 107.78 156.74 86.46 156.73 65.14 C 137.80 65.12 118.88 65.14 99.95 65.12 C 91.95 64.96 84.39 69.65 80.36 76.46 C 78.67 80.04 73.23 80.12 71.34 76.69 C 69.77 74.35 71.06 71.59 72.50 69.55 M 187.87 113.72 C 187.93 121.55 187.79 129.38 187.95 137.22 C 193.61 137.78 199.32 137.39 205.00 137.50 C 204.86 134.38 205.66 130.92 203.89 128.13 C 201.06 123.21 198.22 118.31 195.44 113.38 C 192.91 113.32 190.37 113.38 187.87 113.72 M 167.45 175.50 C 161.00 176.21 157.84 184.95 162.32 189.63 C 166.08 194.34 174.33 193.20 176.66 187.64 C 179.84 181.73 173.97 174.09 167.45 175.50 M 110.21 176.13 C 104.10 178.46 103.29 187.93 108.98 191.21 C 113.96 194.81 121.87 191.20 122.27 185.02 C 123.29 178.68 115.98 173.19 110.21 176.13 Z" />
<path fill="#7a7a7a" opacity="1.00" d=" M 71.24 96.26 C 85.17 95.94 99.13 96.20 113.07 96.13 C 116.92 95.51 120.25 100.12 118.37 103.55 C 117.26 105.96 114.42 106.61 112.01 106.52 C 99.35 106.49 86.69 106.51 74.04 106.51 C 71.80 106.55 69.19 106.22 68.03 104.03 C 65.86 101.26 67.88 96.84 71.24 96.26 Z" />
<path fill="#7a7a7a" opacity="1.00" d=" M 70.21 117.28 C 78.04 116.02 86.13 117.12 94.06 116.72 C 97.42 116.93 101.79 115.83 104.15 118.95 C 106.66 122.06 103.98 127.26 100.02 127.08 C 91.68 127.24 83.33 127.04 74.98 127.16 C 72.58 127.15 69.54 127.26 68.10 124.92 C 66.23 122.43 67.30 118.42 70.21 117.28 Z" />
<path fill="#7a7a7a" opacity="1.00" d=" M 69.38 138.35 C 72.93 136.67 77.15 137.83 80.97 137.48 C 84.23 137.64 88.96 136.58 90.68 140.24 C 92.62 143.48 89.80 148.10 86.02 147.73 C 81.06 147.72 76.09 147.95 71.14 147.59 C 66.87 146.94 65.77 140.59 69.38 138.35 Z" />
</g>
</svg>
