<?xml version="1.0" encoding="UTF-8" standalone="no"?>
<svg
   id="Layer_1"
   data-name="Layer 1"
   viewBox="0 0 700 900"
   version="1.1"
   sodipodi:docname="under-construction.svg"
   xml:space="preserve"
   width="700"
   height="900"
   inkscape:version="1.2.2 (b0a8486541, 2022-12-01)"
   xmlns:inkscape="http://www.inkscape.org/namespaces/inkscape"
   xmlns:sodipodi="http://sodipodi.sourceforge.net/DTD/sodipodi-0.dtd"
   xmlns:xlink="http://www.w3.org/1999/xlink"
   xmlns="http://www.w3.org/2000/svg"
   xmlns:svg="http://www.w3.org/2000/svg"><sodipodi:namedview
     id="namedview72"
     pagecolor="#ffffff"
     bordercolor="#000000"
     borderopacity="0.25"
     inkscape:showpageshadow="2"
     inkscape:pageopacity="0.0"
     inkscape:pagecheckerboard="0"
     inkscape:deskcolor="#d1d1d1"
     showgrid="false"
     inkscape:zoom="0.60669762"
     inkscape:cx="82.413378"
     inkscape:cy="369.21193"
     inkscape:window-width="1920"
     inkscape:window-height="1020"
     inkscape:window-x="0"
     inkscape:window-y="32"
     inkscape:window-maximized="1"
     inkscape:current-layer="Layer_1" /><defs
     id="defs47"><style
       id="style2">.cls-1{fill:#cb5600;}.cls-1,.cls-10,.cls-11,.cls-2,.cls-3,.cls-4,.cls-5,.cls-6,.cls-7,.cls-9{fill-rule:evenodd;}.cls-2{fill:url(#linear-gradient);}.cls-3{fill:url(#linear-gradient-2);}.cls-4{fill:url(#linear-gradient-3);}.cls-5{fill:url(#linear-gradient-4);}.cls-6{fill:url(#linear-gradient-5);}.cls-7{fill:#fff;opacity:0.11;}.cls-10,.cls-7{isolation:isolate;}.cls-8{fill:#cb5c00;}.cls-9{fill:url(#linear-gradient-6);}.cls-10{opacity:0.71;fill:url(#linear-gradient-7);}.cls-11{fill:#ee6900;}</style><linearGradient
       id="linear-gradient"
       x1="47.18"
       y1="811.27002"
       x2="50.560001"
       y2="787.85999"
       gradientTransform="matrix(3.05,0,0,-3.11,65.47,2923.14)"
       gradientUnits="userSpaceOnUse"><stop
         offset="0"
         stop-color="#e26400"
         id="stop4" /><stop
         offset="1"
         stop-color="#ffb900"
         id="stop6" /></linearGradient><linearGradient
       id="linear-gradient-2"
       x1="69.82"
       y1="543.71997"
       x2="96.790001"
       y2="537.44"
       gradientTransform="matrix(0.86,0,0,-0.86,67.66,674.46)"
       gradientUnits="userSpaceOnUse"><stop
         offset="0"
         stop-color="#9b4400"
         id="stop9" /><stop
         offset="1"
         stop-color="#e56300"
         id="stop11" /></linearGradient><linearGradient
       id="linear-gradient-3"
       x1="127.29"
       y1="517.29999"
       x2="264.56"
       y2="531.13"
       gradientTransform="matrix(0.86,0,0,-0.86,67.66,674.46)"
       gradientUnits="userSpaceOnUse"><stop
         offset="0"
         stop-color="#f48200"
         stop-opacity="0"
         id="stop14" /><stop
         offset="0.59"
         stop-color="#f48200"
         stop-opacity="0.73"
         id="stop16" /><stop
         offset="0.82"
         stop-color="#cc5f00"
         id="stop18" /><stop
         offset="1"
         stop-color="#a43d00"
         id="stop20" /></linearGradient><linearGradient
       id="linear-gradient-4"
       x1="59.049999"
       y1="459.35001"
       x2="278.73999"
       y2="401.13"
       gradientTransform="matrix(0.86,0,0,-0.86,67.66,674.46)"
       gradientUnits="userSpaceOnUse"><stop
         offset="0"
         stop-color="#a1abb2"
         id="stop23" /><stop
         offset="0.08"
         stop-color="#eaeced"
         id="stop25" /><stop
         offset="1"
         stop-color="#c6ccd0"
         id="stop27" /></linearGradient><linearGradient
       id="linear-gradient-5"
       x1="115.12"
       y1="659.65002"
       x2="171.25"
       y2="645.82001"
       gradientTransform="matrix(0.86,0,0,-0.86,67.66,674.46)"
       gradientUnits="userSpaceOnUse"><stop
         offset="0"
         stop-color="#a1abb2"
         id="stop30" /><stop
         offset="0.15"
         stop-color="#eaeced"
         id="stop32" /><stop
         offset="1"
         stop-color="#c6ccd0"
         id="stop34" /></linearGradient><linearGradient
       id="linear-gradient-6"
       x1="-94.529999"
       y1="221.92"
       x2="398.70999"
       y2="220.66"
       gradientTransform="matrix(0.86,0,0,-0.86,67.66,674.46)"
       gradientUnits="userSpaceOnUse"><stop
         offset="0"
         stop-color="#ffb900"
         id="stop37" /><stop
         offset="1"
         stop-color="#ffd76b"
         id="stop39" /></linearGradient><linearGradient
       id="linear-gradient-7"
       x1="232.8"
       y1="752.60999"
       x2="232.24001"
       y2="748.46997"
       gradientTransform="matrix(3.05,0,0,-3.05,-489.21,2756.78)"
       gradientUnits="userSpaceOnUse"><stop
         offset="0"
         stop-color="#f68000"
         id="stop42" /><stop
         offset="1"
         stop-color="#fd9800"
         id="stop44" /></linearGradient><linearGradient
       id="linearGradient3932"
       inkscape:collect="always"><stop
         id="stop3934"
         style="stop-color:#ffffff"
         offset="0" /><stop
         id="stop3936"
         style="stop-color:#ffffff;stop-opacity:0"
         offset="1" /></linearGradient><linearGradient
       id="linearGradient3920"
       inkscape:collect="always"><stop
         id="stop3922"
         style="stop-color:#ffff00"
         offset="0" /><stop
         id="stop3928"
         style="stop-color:#f7cc22"
         offset=".60876" /><stop
         id="stop3924"
         style="stop-color:#d4aa00"
         offset="1" /></linearGradient><filter
       id="filter3897"
       inkscape:collect="always"
       color-interpolation-filters="sRGB"
       x="-0.023722853"
       y="-0.074613141"
       width="1.0474457"
       height="1.1492263"><feGaussianBlur
         id="feGaussianBlur3899"
         stdDeviation="2.9371152"
         inkscape:collect="always" /></filter><filter
       id="filter3944"
       inkscape:collect="always"
       color-interpolation-filters="sRGB"
       x="-0.029589467"
       y="-0.045956024"
       width="1.0591789"
       height="1.091912"><feGaussianBlur
         id="feGaussianBlur3946"
         stdDeviation="2.2336543"
         inkscape:collect="always" /></filter><filter
       id="filter4015"
       inkscape:collect="always"
       color-interpolation-filters="sRGB"
       x="-0.023065045"
       y="-0.025014204"
       width="1.0461301"
       height="1.0500284"><feGaussianBlur
         id="feGaussianBlur4017"
         stdDeviation="1.3764065"
         inkscape:collect="always" /></filter><filter
       id="filter4041"
       height="1.1688437"
       width="2.2297886"
       color-interpolation-filters="sRGB"
       y="-0.084421863"
       x="-0.61489431"
       inkscape:collect="always"><feGaussianBlur
         id="feGaussianBlur4043"
         stdDeviation="1.0376854"
         inkscape:collect="always" /></filter><filter
       id="filter4045"
       height="1.267284"
       width="1.1057595"
       color-interpolation-filters="sRGB"
       y="-0.13364198"
       x="-0.052879731"
       inkscape:collect="always"><feGaussianBlur
         id="feGaussianBlur4047"
         stdDeviation="1.0376854"
         inkscape:collect="always" /></filter><filter
       id="filter4049"
       height="1.2297013"
       width="1.1130813"
       color-interpolation-filters="sRGB"
       y="-0.11485067"
       x="-0.056540626"
       inkscape:collect="always"><feGaussianBlur
         id="feGaussianBlur4051"
         stdDeviation="1.0376854"
         inkscape:collect="always" /></filter><filter
       id="filter3894"
       height="1.1142165"
       width="1.4583895"
       color-interpolation-filters="sRGB"
       y="-0.05710823"
       x="-0.22919474"
       inkscape:collect="always"><feGaussianBlur
         id="feGaussianBlur3896"
         stdDeviation="0.88339292"
         inkscape:collect="always" /></filter><filter
       id="filter3898"
       height="1.1623729"
       width="1.2269049"
       color-interpolation-filters="sRGB"
       y="-0.08118643"
       x="-0.11345247"
       inkscape:collect="always"><feGaussianBlur
         id="feGaussianBlur3900"
         stdDeviation="0.88339292"
         inkscape:collect="always" /></filter><filter
       id="filter3902"
       height="1.1787777"
       width="1.4213961"
       color-interpolation-filters="sRGB"
       y="-0.089388867"
       x="-0.21069807"
       inkscape:collect="always"><feGaussianBlur
         id="feGaussianBlur3904"
         stdDeviation="0.88339292"
         inkscape:collect="always" /></filter><radialGradient
       id="radialGradient3075"
       xlink:href="#linearGradient3920"
       gradientUnits="userSpaceOnUse"
       cy="938.51001"
       cx="282.70999"
       gradientTransform="matrix(-1.2811,-0.86582,-0.33565,0.49663,1007.8,353.37)"
       r="184.62"
       inkscape:collect="always" /><radialGradient
       id="radialGradient3077"
       gradientUnits="userSpaceOnUse"
       cy="852.58002"
       cx="551.22998"
       gradientTransform="matrix(-0.52675,4.2513,2.0303,0.25156,-1365.2,-2051.2)"
       r="10.953"
       inkscape:collect="always"><stop
         id="stop4000"
         style="stop-color:#000000;stop-opacity:0"
         offset="0" /><stop
         id="stop4002"
         style="stop-color:#000000;stop-opacity:0"
         offset=".46497" /><stop
         id="stop4004"
         style="stop-color:#000000"
         offset="1" /></radialGradient><radialGradient
       id="radialGradient3079"
       xlink:href="#linearGradient3920"
       gradientUnits="userSpaceOnUse"
       cy="807.70001"
       cx="412.95999"
       gradientTransform="matrix(-1.1082,-1.4904e-7,-1.6958e-7,1.1885,655.07,-518.96)"
       r="151.06"
       inkscape:collect="always" /><radialGradient
       id="radialGradient3081"
       gradientUnits="userSpaceOnUse"
       cy="1055.1"
       cx="306.09"
       gradientTransform="matrix(-1.3289,0,0,0.50782,717.86,79.411)"
       r="184.62"
       inkscape:collect="always"><stop
         id="stop3982"
         style="stop-color:#aa8800"
         offset="0" /><stop
         id="stop3988"
         style="stop-color:#a28100"
         offset=".79034" /><stop
         id="stop3984"
         style="stop-color:#554400"
         offset="1" /></radialGradient><radialGradient
       id="radialGradient3083"
       gradientUnits="userSpaceOnUse"
       cy="987.09998"
       cx="-5153.7002"
       gradientTransform="matrix(1.121,-1.8784e-8,0,0.37961,6174.9,535.82)"
       r="155.62"
       inkscape:collect="always"><stop
         id="stop3903"
         style="stop-color:#000000;stop-opacity:0"
         offset="0" /><stop
         id="stop3911"
         style="stop-color:#000000;stop-opacity:0"
         offset=".1" /><stop
         id="stop3905"
         style="stop-color:#000000"
         offset="1" /></radialGradient><radialGradient
       id="radialGradient3085"
       xlink:href="#linearGradient3932"
       gradientUnits="userSpaceOnUse"
       cy="713.67999"
       cx="478.20999"
       gradientTransform="matrix(1.7367,2.9212,-1.8824,1.0554,988.92,-1416.8)"
       r="76.410004"
       inkscape:collect="always" /><radialGradient
       id="radialGradient3087"
       xlink:href="#linearGradient3932"
       gradientUnits="userSpaceOnUse"
       cy="713.67999"
       cx="478.20999"
       gradientTransform="matrix(-1.4649,2.5372,1.5878,0.9167,-297.52,-1489.9)"
       r="76.410004"
       inkscape:collect="always" /><radialGradient
       id="radialGradient3089"
       xlink:href="#linearGradient3932"
       gradientUnits="userSpaceOnUse"
       cy="709.34003"
       cx="302.32999"
       gradientTransform="matrix(0.5,0.86603,-2.0826,1.2024,1628.4,-403.43)"
       r="71.609001"
       inkscape:collect="always" /></defs><g
     id="g573"
     transform="matrix(1.3679236,0,0,1.3507431,39.677217,201.17295)"><path
       class="cls-1"
       d="m 10.03,465.38 c 0,0 -7.06,7.61 -8.93,13.79 -1.3,4.32 -1.81,10.76 0.54,14.61 1.73,2.82 4,5.68 7.3,5.68 143.92,0 303.08,0.23 415.05,0.54 3.8,0 11,-0.66 13.94,-4.87 2.94,-4.21 2.93,-13.87 0.81,-18.66 -2.24,-5.05 -12.72,-7.31 -12.72,-7.31 z"
       id="path49" /><path
       class="cls-2"
       d="M 63.06,313.55 A 16.9,16.9 0 0 0 47.75,324.92 L 1.81,477.11 c -1.91,6.3 1.84,11.4 8.42,11.4 h 423.68 c 5,0 7.89,-3.87 6.43,-8.67 l -47.6,-157.62 a 12.88,12.88 0 0 0 -11.65,-8.67 z"
       id="path51"
       style="fill:url(#linear-gradient)" /><path
       class="cls-3"
       d="m 220.05,0 c -10.93,-0.11 -17.35,0.7 -23.8,5.55 -2.94,2.21 -5.27,7.46 -6.66,11.24 L 77.43,387.05 c 0,0 2.62,16.73 18.48,31.94 10.7,10.26 31,17.85 43.73,20.61 32.71,7.09 58.94,8.79 88.6,8.34 30.47,-0.47 60.91,-6.45 90.21,-14.84 43.69,-12.5 45.08,-47.59 45.08,-47.59 L 248.17,9.92 A 8.6,8.6 0 0 0 245.62,6.36 C 238.77,-0.13 228.39,0.09 220.05,0.01 Z"
       id="path53"
       style="fill:url(#linear-gradient-2)" /><path
       class="cls-4"
       d="m 220.05,0 c -10.93,-0.11 -17.35,0.7 -23.8,5.55 -2.94,2.21 -5.27,7.46 -6.66,11.24 L 77.43,387.05 c 0,0 4.93,32 44.63,47.63 27.47,10.81 55.83,12.24 100,12.71 49.15,0.53 69.17,-4.29 101.29,-15.5 15.12,-5.27 23,-12.13 30.13,-19.74 10.37,-11 10.09,-26.64 10.09,-26.64 L 248.17,9.92 A 14.75,14.75 0 0 0 245.62,6.36 C 238.77,-0.13 228.39,0.09 220.05,0.01 Z"
       id="path55"
       style="fill:url(#linear-gradient-3)" /><path
       class="cls-5"
       d="m 118.36,251.89 -25.64,84.66 c 31.1,26.21 76.74,42.76 127.62,42.76 51.1,0 96.91,-16.7 128,-43.12 L 322.56,252.1 c -23.77,19 -60.62,31.14 -102,31.14 -41.38,0 -78.41,-12.24 -102.2,-31.35 z"
       id="path57"
       style="fill:url(#linear-gradient-4)" /><path
       class="cls-6"
       d="m 266.63,70.06 c -12.1,4.06 -28.64,6.58 -46.9,6.58 -18,0 -34.28,-2.43 -46.33,-6.38 l -27.04,89.34 c 18.18,9.52 44.82,15.54 74.51,15.54 29.11,0 55.3,-5.76 73.46,-15 z"
       id="path59"
       style="fill:url(#linear-gradient-5)" /><path
       class="cls-7"
       d="m 205.07,14.92 c 3.51,0.66 6.48,5.25 6.12,8.8 -12.92,125.68 -28.11,262.33 -40.17,383.66 0,0 -1.34,8.42 -4.59,10.33 -13.68,8 -33.22,2.87 -47.43,-4.21 -9.7,-4.82 -18.67,-13.73 -21.8,-24.1 -3.25,-10.73 2.2,-22.41 5,-33.27 28.3,-110.9 65.62,-233 92.95,-334.51 1,-3.86 6,-7.43 9.95,-6.7 z"
       id="path61" /><ellipse
       class="cls-8"
       cx="220.22"
       cy="3.5999999"
       rx="19.709999"
       ry="3.1099999"
       id="ellipse63" /><path
       class="cls-9"
       d="m 1.64,478.5 a 10,10 0 0 0 4.51,4.9 c 2.64,1.21 12.67,0.78 12.67,0.78 h 412.34 a 15.92,15.92 0 0 0 6.59,-1 4.93,4.93 0 0 0 2.59,-3.38 c 0,0 1.07,4.21 -1.37,6.8 -1.73,1.84 -4.81,1.87 -7.33,1.87 -136.51,0 -279.12,0 -417.43,0 -3.58,0 -8.07,0.31 -10.49,-2.34 a 8.49,8.49 0 0 1 -2.08,-7.67 z"
       id="path65"
       style="fill:url(#linear-gradient-6)" /><path
       class="cls-10"
       d="m 350.44,433.48 c -7.09,20.31 -6.12,33.27 -19.9,39.78 -32.28,15.24 -67.53,11.74 -102.13,12.24 -35.27,0.54 -71.22,0.34 -105.57,-7.27 -9.08,-2 -16.11,-11.49 -19.13,-20.27 -2,-5.77 -6.53,-10.59 -5.74,-19.13 0.2,-2.17 2.49,-3.53 4.63,-3.92 1.89,-0.34 5,-0.35 7.23,1.63 4.89,4.32 8.06,10.4 12.25,11.27 34.33,7.12 70.18,10.33 107.86,10.53 28,0.15 48.34,-0.14 75.36,-7.65 4.5,-1.25 17.14,-3.54 21,-6.12 2.26,-1.5 3.95,-3.73 6.12,-5.36 4,-3 7.65,-7.62 12.62,-8 1.93,-0.15 6,0.46 5.35,2.3 z"
       id="path67"
       style="fill:url(#linear-gradient-7)" /><path
       class="cls-11"
       d="m 75.13,369.28 c 0,0 -7.5,5.41 -8.52,12.26 -1.74,11.61 11.42,27.71 18.64,37 7.77,10 23.63,17 35.28,21.83 18.17,7.6 38.16,10.4 57.73,12.61 18.82,2.12 41.7,1.31 60.59,0 19.46,-1.36 45,-3.16 54.1,-4.87 20.54,-3.88 36.53,-10 51.58,-20 6.41,-4.29 15.06,-12.93 19.19,-19.45 3.15,-5 9,-15.22 9.29,-21.1 0.15,-3.31 -8.49,-10.14 -8.49,-10.14 0,0 -4.55,30.8 -46.91,49 -24.38,10.46 -51.19,13.53 -77.68,15 -25.6,1.47 -57.43,0.45 -82.55,-4.71 -18.61,-3.82 -34,-10.82 -50.88,-19.48 -17.71,-9.06 -26.77,-32.82 -30.34,-42.25 -2.69,-7.1 -1,-5.67 -1,-5.67 z"
       id="path69" /></g><g
     id="g3051"
     transform="matrix(1.2050526,0.63922047,-0.64735092,1.1899176,481.13457,-442.08887)"><path
       id="path3908"
       style="fill:#000000"
       sodipodi:type="inkscape:offset"
       d="m 413.60547,652.18164 c -33.05517,-0.11472 -63.75661,11.43489 -88.32227,30.85547 -32.40047,20.10168 -56.45412,51.76112 -65.5039,88.78516 l 0.0879,-0.29883 c -6.91097,20.05998 -10.46975,38.22413 -12.21094,54.08594 -4.55787,3.04247 -9.86083,6.82789 -13.56055,10.20703 -6.25184,5.7101 -20.08537,19.13047 -32.48242,32.98242 -6.19852,6.92597 -12.02663,13.94153 -16.38476,20.22461 -4.35814,6.28307 -7.51563,11.49226 -7.51563,16.69531 0,5.77191 2.805,11.30597 6.8418,16.66992 4.0368,5.36396 9.43149,10.62407 15.30078,15.67188 11.73857,10.0956 25.4487,19.35762 33.61914,25.62109 11.00676,8.43781 18.64604,13.72815 29.50977,16.70313 10.86372,2.97497 24.55165,3.65234 48.23437,3.65234 19.88017,0 51.95908,-8.65753 82.84375,-18.70117 30.86563,-10.03745 60.18856,-21.49621 73.62109,-27.48242 l 0.0117,-0.006 c 24.04471,-10.38462 55.16825,-26.52121 73.75586,-40.72852 17.52779,-12.53792 28.33594,-28.10381 28.33594,-45.27539 0,-13.99885 -7.28173,-26.95614 -19.39649,-38.01758 0.65507,-5.08084 1.10593,-10.21816 1.23829,-15.45898 2.02877,-80.33305 -59.78939,-145.91402 -138.02344,-146.18555 z"
       inkscape:original="M 413.59375 655.5625 C 381.27579 655.45034 351.27352 666.74582 327.25 685.78125 C 295.46737 705.4333 271.90759 736.43839 263.0625 772.625 C 256.01934 793.06869 252.46407 811.54429 250.8125 827.53125 C 246.11663 830.61201 240.12661 834.88597 236.375 838.3125 C 224.10321 849.52091 181.09375 891.94062 181.09375 905.71875 C 181.09375 924.20266 218.85703 948.21752 235.53125 961 C 257.43367 977.79044 263.99004 980.65625 311.21875 980.65625 C 348.9405 980.65625 439.91929 946.52998 466.34375 934.75 C 490.2041 924.44584 521.3259 908.25893 539.4375 894.40625 C 556.45843 882.24564 566.40625 867.61022 566.40625 851.84375 C 566.40625 838.5275 559.29769 826.02479 546.84375 815.125 C 547.61934 809.59303 548.1058 803.99111 548.25 798.28125 C 550.23398 719.72201 489.94836 655.82751 413.59375 655.5625 z "
       transform="matrix(-1,0,0,0.99183,613.33,-338.32)"
       inkscape:radius="3.3800554" /><path
       id="path3866"
       d="m 201.4,317.34 c 30.971,-0.10749 59.728,10.727 82.75,28.969 30.458,18.833 53.038,48.528 61.515,83.206 6.7495,19.591 10.148,37.304 11.73,52.624 4.5001,2.9523 10.253,7.0424 13.849,10.326 11.76,10.741 52.969,51.39 52.969,64.594 0,17.713 -36.177,40.719 -52.156,52.969 -20.989,16.09 -27.272,18.844 -72.531,18.844 -36.149,0 -123.33,-32.711 -148.66,-44 C 128,574.9974 98.149,559.506 80.793,546.231 64.482,534.577 54.96,520.544 54.96,505.435 c 0,-12.761 6.8153,-24.742 18.75,-35.188 -0.74325,-5.3013 -1.2056,-10.684 -1.3438,-16.156 -1.9013,-75.284 55.86,-136.5 129.03,-136.75 z"
       sodipodi:nodetypes="scccssssccscss"
       style="fill:url(#radialGradient3075)"
       inkscape:connector-curvature="0" /><path
       id="path3962"
       style="opacity:0.8;fill:url(#radialGradient3077)"
       inkscape:connector-curvature="0"
       d="m 73.708,470.25 c 0,3.2611 0.24649,6.4794 0.71875,9.6562 -6.0038,7.9498 -9.3125,16.544 -9.3125,25.531 0,10.284 4.2886,20.061 12.031,28.938 -12.586,-9.9721 -20.406,-21.34 -21.906,-33.375 1.3854,-11.101 7.9276,-21.524 18.469,-30.75 z" /><path
       id="path3913"
       sodipodi:nodetypes="scccccss"
       style="fill:url(#radialGradient3079)"
       inkscape:connector-curvature="0"
       d="m 201.4,317.34 c 30.971,-0.10749 59.728,10.727 82.75,28.969 30.458,18.833 53.024,48.541 61.5,83.219 6.7495,19.591 10.167,37.305 11.75,52.625 0,72.295 -96.13,91.133 -140.34,92 -64.85,0.44 -143.35,-45.43 -143.35,-103.91 -0.74325,-5.3013 -1.2056,-10.684 -1.3438,-16.156 -1.9013,-75.284 55.86,-136.5 129.03,-136.75 z" /><path
       id="path3872"
       style="opacity:0.55133;fill:#ffff04"
       inkscape:connector-curvature="0"
       d="m 72.365,447.09 c 0.14017,5.3216 0.6034,10.58 1.3438,15.75 -0.26414,0.21965 -0.52214,0.43503 -0.78125,0.65625 -0.2882,-3.1054 -0.48261,-6.2429 -0.5625,-9.4062 -0.0594,-2.3526 -0.0558,-4.6763 0,-7 z" /><path
       id="path3851"
       sodipodi:nodetypes="cccsscsssscscc"
       style="fill:url(#radialGradient3081)"
       inkscape:connector-curvature="0"
       d="m 55.24,501 c 1.8449,14.8 13.234,28.613 31.313,40.031 18.993,11.608 42.864,25.692 64.312,35.406 25.323,11.588 112.51,45.497 148.66,46.312 45.26,1.0216 51.542,-1.5211 72.531,-16.75 15.682,-11.378 50.823,-32.444 52.125,-49.562 0.0198,0.21949 0.0312,0.41869 0.0312,0.625 0,17.713 -36.177,40.719 -52.156,52.969 -20.989,16.09 -27.272,18.844 -72.531,18.844 -36.149,0 -123.3,-32.779 -148.66,-44 -27.109,-11.998 -54.492,-26.06 -74.75,-42.199 -13.44,-10.907 -21.156,-23.637 -21.156,-37.238 0,-1.4901 0.0981,-2.9699 0.28125,-4.4375 z" /><path
       id="path3834"
       style="opacity:0.2;fill:url(#radialGradient3083);filter:url(#filter3897)"
       inkscape:connector-curvature="0"
       d="m 540.09,822.28 c -13.71,52.35 -75.46,92.1 -148.53,92.1 -71.503,0 -130.23,-38.063 -143.12,-88.75 -1.5685,4.3149 -2.4631,8.7548 -2.625,13.281 -1.5382,43.003 63.712,77.844 145.75,77.844 82.038,0 149.81,-34.84 151.34,-77.844 0.20388,-5.6998 -0.78598,-11.274 -2.8125,-16.625 z"
       transform="matrix(-0.9796,0,0,1,600.6,-345)" /><path
       id="path3842"
       style="fill:#000000"
       inkscape:connector-curvature="0"
       d="m 201.4,317.34 c 30.971,-0.10749 59.728,10.727 82.75,28.969 4.6439,2.8715 9.0881,6.0193 13.344,9.375 27.26,25.82 44.991,62.399 46.406,102.97 0.10791,3.0927 0.1133,6.1754 0.0312,9.2188 -0.0341,-0.35629 -0.0885,-0.70561 -0.125,-1.0625 -8.3081,-81.13 -76.179,-146.91 -151.59,-146.91 -10.468,0 -20.517,1.2865 -30.062,3.6875 12.344,-4.0247 25.53,-6.2024 39.25,-6.25 z" /><path
       id="path3839"
       style="fill:#000000"
       inkscape:connector-curvature="0"
       d="m 166.36,322.31 c 54.347,11.452 100.47,71.166 110.34,150.25 2.685,21.512 2.4576,42.63 -0.28125,62.594 0.84526,-16.068 0.18114,-32.684 -2.1562,-49.562 -12.11,-87.446 -65.143,-152.02 -124.31,-157.31 5.2816,-2.349 10.775,-4.3469 16.406,-5.9688 z" /><path
       id="path3940"
       d="m 426.65,695.52 c -29.774,25.56 -55.211,61.159 -72.926,102.83 19.725,-2.7637 40.294,-4.2456 61.329,-4.2456 44.571,0 85.495,6.5943 119.7,18.062 3.0418,-65.109 -42.9,-114.86 -108.11,-116.65 z"
       style="opacity:0.4;fill:url(#radialGradient3085);filter:url(#filter3944)"
       transform="matrix(-0.93316,0,0,1,589.69,-345)"
       inkscape:connector-curvature="0" /><path
       id="path3889"
       style="opacity:0.5;fill:url(#radialGradient3087)"
       inkscape:connector-curvature="0"
       d="m 176.75,344.77 c 25.114,22.201 46.571,53.119 61.513,89.312 -16.638,-2.4004 -33.988,-3.6875 -51.731,-3.6875 -37.596,0 -72.115,5.7275 -100.97,15.688 -2.5658,-56.551 36.186,-99.758 91.187,-101.31 z" /><path
       id="path3975"
       sodipodi:nodetypes="cccsscssccccsc"
       style="opacity:0.62357;fill:#ffdd55"
       inkscape:connector-curvature="0"
       d="m 55.24,501 c 1.93,15.484 14.306,29.887 33.859,41.597 23.147,13.564 42.451,25.395 61.766,33.84 25.323,11.588 112.51,45.497 148.66,46.312 45.26,1.0216 51.542,-1.5211 72.531,-16.75 15.645,-11.351 50.667,-32.341 52.125,-49.438 -1.0993,17.189 -36.396,38.792 -52.125,50.406 -20.989,15.498 -27.272,18.123 -72.531,17.625 -36.16,-0.4 -123.34,-33.35 -148.67,-44.66 -20.74,-10.06 -44.43,-22.64 -63.914,-34.49 -19.134,-11.775 -30.89,-26.303 -31.925,-41.981 -0.003,-0.0417 0.003,-0.0833 0,-0.125 0.003,-0.0417 -0.003,-0.0834 0,-0.125 0.0474,-0.73965 0.12718,-1.4849 0.21875,-2.2188 z" /><path
       id="path4006"
       style="fill:url(#radialGradient3089);filter:url(#filter4015)"
       d="m 279.59,782.35 c 20.04,-62.92 75.6,-114.1 143.22,-114.1 -72.97,16.449 -105.26,83.284 -106.75,132.06 -14.175,-3.1953 -27.246,-10.206 -36.469,-17.965 z"
       sodipodi:nodetypes="cccc"
       inkscape:connector-curvature="0"
       transform="matrix(-1,0,0,1,613.33,-345)" /><path
       id="rect4019"
       style="fill:#d4aa00;filter:url(#filter4049)"
       inkscape:connector-curvature="0"
       d="m 341.3,903.96 44.047,5.4212 v 16.263 L 341.3,920.223 Z"
       transform="matrix(-1,0,0,1,613.33,-345)" /><path
       id="path4022"
       style="fill:#ffd42a;filter:url(#filter4045)"
       d="m 341.3,903.96 44.047,5.4212 3.0494,-13.214 -44.047,-5.4212 z"
       sodipodi:nodetypes="ccccc"
       inkscape:connector-curvature="0"
       transform="matrix(-1,0,0,1,613.33,-345)" /><path
       id="path4024"
       style="fill:#ffd42a;filter:url(#filter4041)"
       d="m 389.41,918.2 -4.0502,7.457 v -16.281 l 3.0312,-13.219 z"
       sodipodi:nodetypes="ccccc"
       inkscape:connector-curvature="0"
       transform="matrix(-1,0,0,1,613.33,-345)" /><path
       id="path4053"
       d="m 341.3,903.96 44.047,5.4212 v 16.263 L 341.3,920.223 Z"
       style="fill:#d4aa00;filter:url(#filter4049)"
       transform="matrix(0.85714,0.27718,-0.13102,0.99138,-63.457,-459.75)"
       inkscape:connector-curvature="0" /><path
       id="path4055"
       style="fill:#ffd42a;filter:url(#filter4045)"
       d="m 341.3,903.96 44.047,5.4212 3.0494,-13.214 -44.047,-5.4212 z"
       sodipodi:nodetypes="ccccc"
       inkscape:connector-curvature="0"
       transform="matrix(0.85714,0.27718,-0.13102,0.99138,-63.457,-459.75)" /><path
       id="path4057"
       style="fill:#ffd42a;filter:url(#filter4041)"
       d="m 389.41,918.2 -4.0502,7.457 v -16.281 l 3.0312,-13.219 z"
       sodipodi:nodetypes="ccccc"
       inkscape:connector-curvature="0"
       transform="matrix(0.85714,0.27718,-0.13102,0.99138,-63.457,-459.75)" /><path
       id="path3056"
       style="fill:#f5ca1f;filter:url(#filter3902)"
       d="m 262.47,862.89 10.062,-7.1875 -0.47917,15.812 -9.5833,7.9062 z"
       sodipodi:nodetypes="ccccc"
       inkscape:connector-curvature="0"
       transform="matrix(-1.5255,0,0,1.0895,751.63,-422.18)" /><path
       id="path3058"
       style="fill:#e4ba10;filter:url(#filter3898)"
       d="m 262.47,862.89 10.062,-7.1875 -9.5833,-18.927 -9.1042,5.5104 z"
       sodipodi:nodetypes="ccccc"
       inkscape:connector-curvature="0"
       transform="matrix(-1.5255,0,0,1.0895,751.63,-422.18)" /><path
       id="path3840"
       style="fill:#dab20d;filter:url(#filter3894)"
       d="m 253.84,842.29 8.625,20.594 v 16.531 l -9.2504,-21.686 z"
       sodipodi:nodetypes="ccccc"
       inkscape:connector-curvature="0"
       transform="matrix(-1.5255,0,0,1.0895,751.63,-422.18)" /></g></svg>
