<?xml version="1.0" encoding="UTF-8" standalone="no"?>
<!-- Created with Inkscape (http://www.inkscape.org/) -->

<svg
   width="90mm"
   height="90mm"
   viewBox="0 0 90 90"
   version="1.1"
   id="svg5"
   xml:space="preserve"
   inkscape:version="1.2.2 (b0a8486541, 2022-12-01)"
   sodipodi:docname="unkown.svg"
   xmlns:inkscape="http://www.inkscape.org/namespaces/inkscape"
   xmlns:sodipodi="http://sodipodi.sourceforge.net/DTD/sodipodi-0.dtd"
   xmlns="http://www.w3.org/2000/svg"
   xmlns:svg="http://www.w3.org/2000/svg"><sodipodi:namedview
     id="namedview7"
     pagecolor="#ffffff"
     bordercolor="#000000"
     borderopacity="0.25"
     inkscape:showpageshadow="2"
     inkscape:pageopacity="0.0"
     inkscape:pagecheckerboard="0"
     inkscape:deskcolor="#d1d1d1"
     inkscape:document-units="mm"
     showgrid="false"
     inkscape:zoom="1.4823793"
     inkscape:cx="253.98357"
     inkscape:cy="237.45609"
     inkscape:window-width="1920"
     inkscape:window-height="1020"
     inkscape:window-x="1360"
     inkscape:window-y="32"
     inkscape:window-maximized="1"
     inkscape:current-layer="layer1" /><defs
     id="defs2" /><g
     inkscape:label="Layer 1"
     inkscape:groupmode="layer"
     id="layer1"><path
       style="fill:#808080;stroke-width:0.0238098"
       d="M 43.574445,86.466782 C 37.492642,86.228204 31.825308,84.815306 26.452553,82.198175 21.201746,79.640446 16.551691,76.026137 12.74451,71.543466 7.7233293,65.631388 4.4415802,58.392642 3.3219342,50.75956 3.1324003,49.467423 3.021894,48.358965 2.9278398,46.806299 c -0.042137,-0.695498 -0.042137,-3.561873 0,-4.257373 0.094085,-1.552666 0.2045605,-2.661122 0.3940944,-3.95327 1.1389278,-7.764488 4.4997457,-15.087188 9.6736318,-21.077319 1.38355,-1.601831 3.113686,-3.31213 4.732459,-4.678236 4.955827,-4.1822875 10.765857,-7.1492167 17.08553,-8.7248408 6.238154,-1.5553082 12.953036,-1.6609851 19.270342,-0.3032941 5.753579,1.2365329 11.228349,3.679005 15.97091,7.1251229 2.825192,2.05289 5.451349,4.516854 7.705565,7.229655 3.572153,4.298831 6.25123,9.305243 7.850907,14.671059 0.874414,2.933036 1.409038,5.896507 1.621117,8.985969 0.121981,1.777029 0.121981,3.930652 0,5.707681 -0.390923,5.694852 -1.907545,11.112667 -4.534643,16.199046 -2.058692,3.985898 -4.664317,7.502914 -7.908877,10.675215 -2.17528,2.126847 -4.273899,3.799056 -6.785749,5.407009 -3.958491,2.534013 -8.231707,4.360138 -12.808094,5.473449 -2.660187,0.647161 -5.110628,0.9997 -8.058071,1.159318 -0.605667,0.0328 -2.916933,0.04664 -3.562517,0.02133 z M 20.641963,71.376342 c 2.199294,-1.241667 4.652834,-2.328542 7.507027,-3.325459 1.695363,-0.592163 3.148811,-1.039026 5.729764,-1.761598 2.380347,-0.66641 2.811229,-0.803049 3.237112,-1.026585 0.847242,-0.444688 1.400116,-1.161807 1.635061,-2.120776 0.08551,-0.34918 0.123301,-0.654637 0.138307,-1.119054 0.03181,-0.98345 -0.141943,-2.113179 -0.493849,-3.211329 l -0.0883,-0.27561 -0.292656,-0.226725 c -1.715941,-1.329311 -3.220819,-3.088157 -4.41808,-5.163646 -0.814111,-1.411313 -1.533434,-3.084799 -2.006557,-4.668218 -0.0632,-0.211463 -0.117725,-0.387738 -0.121206,-0.391715 -0.003,-0.0039 -0.06476,0.0091 -0.13616,0.02851 -0.25814,0.07119 -1.113067,0.184679 -1.37792,0.182994 -0.87107,-0.006 -1.664671,-0.59022 -1.877566,-1.383221 -0.02096,-0.07796 -0.333109,-1.923557 -0.693753,-4.101354 -0.60984,-3.682672 -0.655002,-3.975978 -0.645707,-4.193542 0.0062,-0.149939 0.02975,-0.297721 0.06486,-0.411633 l 0.05493,-0.177711 -0.183254,-0.538333 c -0.470861,-1.38328 -0.760604,-2.734441 -0.862001,-4.01991 -0.03275,-0.414624 -0.03315,-1.430691 -9.19e-4,-1.799878 0.134611,-1.536993 0.550962,-2.89592 1.254215,-4.093615 0.169354,-0.288442 0.58307,-0.886447 0.79297,-1.146218 0.498632,-0.617115 1.267736,-1.363383 1.882854,-1.826942 l 0.06528,-0.04914 -0.04038,-0.219856 c -0.05184,-0.282699 -0.05886,-1.509522 -0.01043,-1.83392 0.251212,-1.683834 0.954289,-3.032303 2.177037,-4.175491 1.717434,-1.605679 4.348754,-2.627768 7.88535,-3.062917 2.356356,-0.289925 5.387814,-0.294281 8.506416,-0.01216 3.509196,0.3174 6.387938,1.286246 8.611273,2.898136 0.70909,0.51408 1.543815,1.270316 2.080205,1.884621 1.875716,2.148109 3.048673,4.874088 3.568178,8.292503 0.213171,1.402759 0.296452,2.75372 0.273266,4.432808 -0.01766,1.280066 -0.0662,2.085228 -0.200016,3.316688 -0.03398,0.312454 -0.06372,0.610674 -0.06619,0.6627 l -0.004,0.09459 0.155357,0.05691 c 0.495502,0.181596 0.938994,0.632934 1.118851,1.13862 0.141272,0.397219 0.154192,0.146319 -0.232188,4.508352 -0.192022,2.167867 -0.365714,4.044313 -0.385987,4.169897 -0.138908,0.860489 -0.890472,1.515674 -1.807189,1.575416 -0.243071,0.01585 -1.278517,-0.06599 -1.478286,-0.116842 -0.07332,-0.01865 -0.134301,-0.03221 -0.135581,-0.03001 -0.001,0.002 -0.06548,0.20919 -0.142574,0.46007 -0.767338,2.495505 -1.937073,4.7943 -3.410226,6.701847 -0.562188,0.727967 -0.969698,1.185026 -1.64896,1.849462 l -0.431977,0.422538 -0.107161,0.272631 c -0.332261,0.845246 -0.580468,1.809387 -0.717929,2.788771 -0.06342,0.452095 -0.08893,1.428538 -0.0476,1.826404 0.08138,0.784975 0.302229,1.437529 0.66282,1.958876 0.123603,0.178717 0.1412,0.192952 0.768722,0.622288 0.353227,0.241659 0.669482,0.455874 0.70281,0.47603 0.09099,0.05502 0.781104,0.277437 2.309376,0.744204 2.141881,0.654189 3.145816,0.980611 4.411309,1.434341 2.963488,1.06251 5.570084,2.270922 7.731516,3.584321 0.27164,0.165062 0.369494,0.213439 0.399868,0.197639 0.05329,-0.02771 1.044894,-0.99954 1.458333,-1.429206 1.867225,-1.940515 3.480289,-4.019003 4.88313,-6.292049 0.867836,-1.406179 1.786577,-3.174306 2.447736,-4.710674 C 81.403209,53.67083 82.374427,47.834824 81.937453,41.9407 81.638944,37.915833 80.683508,34.012146 79.091195,30.311998 78.430037,28.775632 77.511295,27.007505 76.643459,25.601327 73.962019,21.256626 70.430174,17.524418 66.245898,14.613961 59.183493,9.7015839 50.718294,7.426594 42.072257,8.1173967 34.656323,8.7099093 27.579281,11.550745 21.763487,16.269643 c -2.183606,1.771766 -4.226032,3.858679 -5.927674,6.056781 -1.805778,2.332607 -3.290631,4.802065 -4.486877,7.462081 -1.7114236,3.805605 -2.7448334,7.859598 -3.070909,12.04694 -0.080453,1.032666 -0.097081,1.520428 -0.097081,2.842142 0,1.321716 0.016628,1.809488 0.097081,2.842144 0.5306566,6.814553 2.946026,13.278529 7.027665,18.807266 0.977868,1.324575 2.032109,2.568683 3.211211,3.789525 0.423756,0.438767 1.570119,1.543884 1.601517,1.543884 0.01135,0 0.247161,-0.127837 0.523912,-0.284084 z"
       id="path179" /></g></svg>
