<?xml version="1.0" encoding="UTF-8" standalone="no"?>
<!-- Created with Inkscape (http://www.inkscape.org/) -->

<svg
   width="210mm"
   height="210mm"
   viewBox="0 0 210 210"
   version="1.1"
   id="svg5"
   xml:space="preserve"
   sodipodi:docname="xstack-nnew2.svg"
   inkscape:version="1.2.2 (b0a8486541, 2022-12-01)"
   xmlns:inkscape="http://www.inkscape.org/namespaces/inkscape"
   xmlns:sodipodi="http://sodipodi.sourceforge.net/DTD/sodipodi-0.dtd"
   xmlns="http://www.w3.org/2000/svg"
   xmlns:svg="http://www.w3.org/2000/svg"><sodipodi:namedview
     id="namedview7"
     pagecolor="#ffffff"
     bordercolor="#000000"
     borderopacity="0.25"
     inkscape:showpageshadow="2"
     inkscape:pageopacity="0.0"
     inkscape:pagecheckerboard="0"
     inkscape:deskcolor="#d1d1d1"
     inkscape:document-units="mm"
     showgrid="false"
     showguides="true"
     inkscape:zoom="0.74742565"
     inkscape:cx="515.77037"
     inkscape:cy="101.68236"
     inkscape:window-width="1920"
     inkscape:window-height="1011"
     inkscape:window-x="1360"
     inkscape:window-y="32"
     inkscape:window-maximized="1"
     inkscape:current-layer="layer1"><sodipodi:guide
       position="16.061519,137.67182"
       orientation="1,0"
       id="guide1164"
       inkscape:locked="false" /><sodipodi:guide
       position="186.48391,84.475668"
       orientation="1,0"
       id="guide1193"
       inkscape:locked="false" /><sodipodi:guide
       position="101.25069,105.99588"
       orientation="1,0"
       id="guide1195"
       inkscape:locked="false" /></sodipodi:namedview><defs
     id="defs2"><inkscape:path-effect
       effect="powermask"
       id="path-effect2921"
       is_visible="true"
       lpeversion="1"
       uri="#mask-powermask-path-effect2921"
       invert="false"
       hide_mask="false"
       background="true"
       background_color="#ffffffff" /><filter
       id="mask-powermask-path-effect1360_inverse"
       inkscape:label="filtermask-powermask-path-effect1360"
       style="color-interpolation-filters:sRGB"
       height="100"
       width="100"
       x="-50"
       y="-50"><feColorMatrix
         id="mask-powermask-path-effect1360_primitive1"
         values="1"
         type="saturate"
         result="fbSourceGraphic" /><feColorMatrix
         id="mask-powermask-path-effect1360_primitive2"
         values="-1 0 0 0 1 0 -1 0 0 1 0 0 -1 0 1 0 0 0 1 0 "
         in="fbSourceGraphic" /></filter><filter
       id="mask-powermask-path-effect1376_inverse"
       inkscape:label="filtermask-powermask-path-effect1376"
       style="color-interpolation-filters:sRGB"
       height="100"
       width="100"
       x="-50"
       y="-50"><feColorMatrix
         id="mask-powermask-path-effect1376_primitive1"
         values="1"
         type="saturate"
         result="fbSourceGraphic" /><feColorMatrix
         id="mask-powermask-path-effect1376_primitive2"
         values="-1 0 0 0 1 0 -1 0 0 1 0 0 -1 0 1 0 0 0 1 0 "
         in="fbSourceGraphic" /></filter><filter
       id="mask-powermask-path-effect1398_inverse"
       inkscape:label="filtermask-powermask-path-effect1398"
       style="color-interpolation-filters:sRGB"
       height="100"
       width="100"
       x="-50"
       y="-50"><feColorMatrix
         id="mask-powermask-path-effect1398_primitive1"
         values="1"
         type="saturate"
         result="fbSourceGraphic" /><feColorMatrix
         id="mask-powermask-path-effect1398_primitive2"
         values="-1 0 0 0 1 0 -1 0 0 1 0 0 -1 0 1 0 0 0 1 0 "
         in="fbSourceGraphic" /></filter><mask
       maskUnits="userSpaceOnUse"
       id="mask-powermask-path-effect2921"><path
         id="mask-powermask-path-effect2921_box"
         style="fill:#ffffff;fill-opacity:1"
         d="m 122.27774,12.655087 h 94.14642 v 94.146423 h -94.14642 z" /><g
         id="g2919"
         transform="matrix(-0.00387785,-0.06242892,0.06242892,0.00387785,133.7732,90.21619)"
         style="fill:#000000"><path
           fill="#d6181a"
           opacity="1"
           d="m 303.2,0 h 4.62 c 2.9,0.19 5.67,1.56 7.43,3.89 4.78,6.09 9.59,12.22 15.26,17.51 2.5,2.15 5.13,4.61 8.56,5 2.88,0.24 4.68,-4.2 7.62,-2.12 5.95,6.46 15.55,6.13 22.92,10.14 2.97,1.36 4.43,4.47 5.91,7.19 4.02,8.22 4.28,17.54 6.24,26.33 1.98,10.43 6.36,20.28 12.32,29.04 16.09,24.47 34.28,47.48 52.31,70.54 47.16,59.29 95.91,117.34 146.77,173.51 15.31,16.61 30.57,33.34 47.35,48.51 6.84,5.97 14.9,12.33 24.52,11.78 9.14,-0.77 17.02,-6.05 24.43,-11.03 15.83,-11.25 30.34,-24.21 45.01,-36.92 29.34,-25.53 57.31,-52.59 85.22,-79.67 30.07,-29.27 59.82,-58.88 89.33,-88.71 23.91,-24.05 47.04,-48.86 71.35,-72.51 17.14,-16.61 34.44,-33.23 53.79,-47.29 10.45,-7.37 21.83,-14.42 34.76,-16.09 8.73,-0.61 17.72,0.03 26.01,3.02 5.1,1.92 10.31,5.37 11.82,10.91 1.29,4.88 -1.18,9.61 -2.64,14.15 -7.85,20.34 -17.29,40.01 -26.53,59.74 -23.6,49.59 -48.28,98.66 -73.04,147.68 -8.29,15.95 -15.35,32.93 -27.72,46.29 -3.4,3.47 -6.91,7.55 -11.86,8.6 -2.82,0.39 -4.1,-2.71 -4.22,-5 -0.47,-6.8 -0.29,-13.89 -2.98,-20.28 -0.93,-2.26 -3.13,-4.33 -5.74,-3.84 -5.77,1.03 -10.06,5.98 -15.94,6.65 -3.61,0.47 -5.72,-2.91 -8.28,-4.76 -4.35,-3.71 -10.09,-6.34 -15.9,-5.16 -7.84,1.58 -14.5,6.36 -20.87,10.93 -13.25,9.95 -25.46,21.19 -37.74,32.3 -30.75,28.19 -61.5,56.47 -89.87,87.09 -5.87,6.5 -11.9,12.92 -16.84,20.18 -2.28,3.17 -2.01,7.37 -1.03,10.96 1.91,6.72 5.56,12.76 9.29,18.6 10.11,15.24 22,29.18 33.91,43.02 32.15,36.76 65.85,72.14 99.02,107.97 29.13,31.26 58.13,62.64 86.84,94.28 25.96,28.73 51.95,57.44 77.08,86.91 39.35,45.79 77.56,92.54 115.49,139.51 5.2,6.72 11.42,12.57 16.68,19.25 0.78,0.75 1.13,1.68 1.02,2.78 -8.94,-5.23 -16.5,-12.56 -24.91,-18.46 8.97,7.52 17.83,15.24 26.24,23.41 1.72,1.95 4.06,3.52 5,6.04 l 0.79,-0.57 v 1.7 c -9.51,-5.14 -17.98,-12.07 -27.08,-17.9 -2.8,-1.6 -5.29,-4.12 -8.48,-4.74 2.03,7.03 9.32,11.66 10.66,18.98 -1.8,0.6 -3.18,-1.16 -4.57,-1.95 -8.6,-6.98 -16.16,-15.12 -23.98,-22.92 -2.57,-2.26 -4.64,-5.34 -7.67,-6.88 -0.64,2.65 0.89,5.12 1.9,7.48 5.31,10.45 12.23,19.97 17.95,30.19 1.06,2.05 2.35,4.1 2.45,6.5 -4.66,-3.57 -8.56,-8.09 -12.85,-12.11 -29.1,-28.87 -57.87,-58.09 -86.98,-86.96 -3.15,-2.88 -5.96,-6.2 -9.31,-8.79 2.51,3.69 5.98,6.7 8.92,10.08 32.02,34 64.4,67.67 96.75,101.35 4.2,2.35 8.94,4.01 12.39,7.53 1.46,1.08 1.42,3.17 0.84,4.75 -4.28,-2.23 -7.67,-6.35 -11.96,-8.28 6.11,5.46 12.9,10.11 18.94,15.66 2.93,3.1 6.28,6.28 7.58,10.44 -7.54,-4.46 -13.96,-10.61 -20.92,-15.91 -13.56,-11.44 -27.57,-22.5 -41.63,-33.43 -4.31,-3.19 -8.39,-6.78 -13.03,-9.46 -3.97,-0.43 -6.7,-3.57 -9.64,-5.93 -11.7,-10.31 -22.75,-21.32 -33.88,-32.22 -31.33,-30.95 -62.2,-62.38 -93.93,-92.93 -12.95,-12.08 -25.23,-25.19 -40.41,-34.54 -10.74,-6.96 -22.61,-12.01 -33.25,-19.08 12.94,15.37 27.58,29.59 38.67,46.51 2.42,3.73 4.85,7.95 4.09,12.6 -0.48,3.22 -0.32,6.75 1.85,9.39 23.59,33.51 47.61,66.74 69.88,101.16 6.33,10.21 13.13,20.29 17.51,31.53 0.57,1.97 2.04,5.4 -0.68,6.34 -5.67,-1.56 -12.06,0.93 -17.31,-2.25 -2.9,-1.06 -6.46,0.85 -7.21,3.88 -1.27,4.99 0.16,10.23 2.29,14.79 2.43,5.33 6.8,9.38 10.11,14.13 19.84,26.56 39.29,53.41 58.48,80.45 2.34,4.03 6.04,7.73 6.51,12.54 h -0.27 c -13.34,-12.31 -24.34,-26.91 -35.55,-41.14 -11.8,-14.97 -22.34,-30.89 -34.37,-45.67 -48.08,-60.31 -98.23,-118.93 -149.07,-176.91 -25.56,-29.1 -51.36,-57.98 -77.38,-86.66 -38.42,-42.19 -77.12,-84.14 -117.2,-124.76 -11.83,-11.82 -23.62,-23.73 -36.33,-34.62 -2.84,-2.18 -5.51,-4.87 -8.96,-6.01 -3.1,0.66 -5.6,2.89 -8.26,4.51 -16.15,11.27 -31.42,23.75 -46.71,36.15 -58.93,48.45 -115.82,99.36 -171.13,151.89 -28.19,26.78 -55.75,54.21 -82.88,82.06 -45.15,45.87 -90.01,92.03 -135.47,137.6 -18.76,18.58 -37.48,37.25 -57.41,54.59 -9.44,8.03 -19.13,15.95 -30.06,21.9 -2.57,1.32 -5.14,2.78 -8,3.39 -8.51,1.35 -17.21,-2.76 -25.55,0.17 -3.07,0.97 -5.24,3.43 -7.3,5.76 -9.65,-1.39 -20.33,-0.95 -28.7,-6.67 -8.39,-6.86 -9,-18.67 -10.42,-28.61 C 1.67,1045.64 1.09,1021.17 0,996.78 v -14.52 c 0.61,-14.52 2.83,-29.41 10.24,-42.17 l 0.8,-0.05 c 2.96,10.65 4.2,21.72 7.12,32.39 l 0.98,-0.07 c 0.71,-15.13 -1.23,-30.25 -1.78,-45.36 0.13,-7.23 3.83,-13.84 8.42,-19.21 10.72,-12.25 24.71,-20.96 38.22,-29.78 31.13,-19.5 62.91,-37.98 93.16,-58.86 17.31,-11.92 34.17,-24.49 51.16,-36.87 61.33,-45.14 122.02,-91.15 182.05,-137.99 30.39,-23.86 60.81,-47.71 90.15,-72.85 9.47,-8.46 20.06,-16.62 25.29,-28.57 2.78,-6.35 0.8,-13.51 -2.39,-19.29 -5.51,-10.08 -13.01,-18.86 -20.35,-27.63 -36.88,-42.47 -76.19,-82.75 -114.25,-124.15 -1.36,-0.21 -1.94,1.45 -3,2.01 -8.29,7.02 -16.56,14.05 -24.85,21.08 -8.76,7.56 -18.19,14.61 -25.08,24.05 -4.58,6.33 -9.38,12.65 -15.82,17.21 -2.49,2.19 -5.84,3.24 -9.13,2.85 -8.54,-0.89 -16.05,-7.21 -19.08,-15.14 -3.31,-9.72 -5.01,-19.97 -9.42,-29.3 -15.25,-34.95 -31,-69.71 -44.69,-105.31 -5.09,-18.77 -8.21,-38.03 -10.23,-57.36 -1.19,-10.63 -1.95,-21.32 -3.59,-31.89 -1.13,-6.87 -2.62,-13.85 -6.05,-19.98 -2.85,-4.87 -6.27,-9.56 -7.76,-15.08 -0.72,-3.54 0.1,-7.21 1.33,-10.54 2.22,-5.73 7.86,-9.36 13.52,-11.07 5.48,-0.32 10.56,3.55 16.06,2.19 3.97,-1.28 5.11,-5.84 5.92,-9.45 2.06,-11.6 1.15,-23.54 -0.79,-35.1 -2.41,-14.55 -9.4,-27.71 -14.68,-41.33 -1.33,-3.62 -2.62,-7.69 -1.19,-11.48 1.48,-3.56 4.6,-6.04 7.56,-8.35 C 232.58,28.99 248.51,19.82 265.06,12.06 277.2,6.52 289.85,1.54 303.2,0 m 838.65,1000.94 c -0.56,4.09 3.49,6.91 5.26,10.24 0.73,0.18 2.18,0.55 2.9,0.74 -1.71,-2.95 -3.15,-6.03 -4.87,-8.96 -0.63,-1.13 -1.68,-3.36 -3.29,-2.02 z"
           id="path2915"
           style="fill:#000000" /><path
           fill="#d6181a"
           opacity="1"
           d="m 1101.52,979.36 c 0.28,-0.81 0.83,-1.29 1.65,-1.43 3.15,4.87 7.58,8.99 11.14,13.67 7.84,9.6 15.71,19.21 22.72,29.46 1.18,2 2.85,3.9 3.07,6.33 -3.62,-0.9 -6.23,-4.09 -9.14,-6.31 -5.44,-4.89 -10.86,-9.83 -16,-15.03 -4.67,-8.8 -8.63,-17.99 -13.44,-26.69 z"
           id="path2917"
           style="fill:#000000" /></g></mask><filter
       id="mask-powermask-path-effect2921_inverse"
       inkscape:label="filtermask-powermask-path-effect2921"
       style="color-interpolation-filters:sRGB"
       height="100"
       width="100"
       x="-50"
       y="-50"><feColorMatrix
         id="mask-powermask-path-effect2921_primitive1"
         values="1"
         type="saturate"
         result="fbSourceGraphic" /><feColorMatrix
         id="mask-powermask-path-effect2921_primitive2"
         values="-1 0 0 0 1 0 -1 0 0 1 0 0 -1 0 1 0 0 0 1 0 "
         in="fbSourceGraphic" /></filter></defs><g
     inkscape:label="Layer 1"
     inkscape:groupmode="layer"
     id="layer1"><rect
       style="fill:#ff0000;fill-opacity:0.97376;stroke:#990404;stroke-width:0;stroke-dasharray:none"
       id="rect503"
       width="92.146423"
       height="92.146423"
       x="123.27774"
       y="13.655087"
       transform="matrix(0.9250562,0.37983026,-0.9250562,0.37983026,0,0)"
       mask="url(#mask-powermask-path-effect2921)"
       inkscape:path-effect="#path-effect2921"
       d="m 123.27774,13.655087 h 92.14642 v 92.146423 h -92.14642 z" /><path
       id="rect503-6"
       style="fill:none;fill-opacity:0.97376;stroke:#e00606;stroke-width:1.88146;stroke-opacity:1"
       d="m 186.17929,103.88404 -84.88942,33.66567 -84.878366,-33.6613 -0.01103,-0.004"
       sodipodi:nodetypes="cccc" /><path
       id="rect503-6-7"
       style="fill:none;fill-opacity:0.97376;stroke:#e00606;stroke-width:1.88146;stroke-opacity:1"
       d="m 186.41282,120.95039 -84.8894,33.66566 -84.878376,-33.66129 -0.01103,-0.004"
       sodipodi:nodetypes="cccc" /></g></svg>
